<svg xmlns="http://www.w3.org/2000/svg" width="375" height="812" viewBox="0 0 375 812">
  <defs>
    <clipPath id="clip"><rect x="8" y="8" width="359" height="796" rx="32"/></clipPath>
    <style>text{font-family:-apple-system,BlinkMacSystemFont,'Segoe UI',sans-serif}</style>
  </defs>
  <rect width="375" height="812" rx="40" fill="#1C1C1E"/>
  <rect x="138" y="14" width="99" height="10" rx="5" fill="#2a2a2a"/>
  <g clip-path="url(#clip)">
    <rect x="8" y="8" width="359" height="796" rx="32" fill="#FFFFFF"/>
    <rect x="8" y="8" width="359" height="28" fill="transparent"/>
<text x="24" y="26" font-size="10" font-weight="700" fill="#6B7280">9:41</text>
<text x="345" y="26" font-size="10" fill="#6B7280" text-anchor="end">●●● 🔋</text><rect x="8" y="36" width="359" height="40" fill="#FFFFFF"/>
<line x1="8" y1="76" x2="367" y2="76" stroke="#E5E7EB"/>
<text x="24" y="61" font-size="13" font-weight="700" fill="#111827">✅  Mis Hábitos</text><text x="351" y="60" font-size="15" fill="#111827" text-anchor="end">＋</text><rect x="24" y="90" width="52" height="16" rx="8" fill="#1A5C38" stroke="#1A5C38"/><text x="50" y="101" font-size="8" font-weight="700" fill="#FFFFFF" text-anchor="middle">Estudio</text><rect x="92" y="90" width="40" height="16" rx="8" fill="#F9FAFB" stroke="#F9FAFB"/><text x="112" y="101" font-size="8" font-weight="700" fill="#6B7280" text-anchor="middle">Salud</text><rect x="92" y="90" width="58" height="16" rx="8" fill="#F9FAFB" stroke="#E5E7EB"/><text x="121" y="101" font-size="8" font-weight="600" fill="#6B7280" text-anchor="middle">Salud</text><rect x="158" y="90" width="70" height="16" rx="8" fill="#F9FAFB" stroke="#E5E7EB"/><text x="193" y="101" font-size="8" font-weight="600" fill="#6B7280" text-anchor="middle">Personal</text><rect x="24" y="116" width="327" height="36" rx="10" fill="#D8F3DC" stroke="#52B788"/><rect x="36" y="136" width="303" height="8" rx="4" fill="#E5E7EB" stroke="#E5E7EB"/><rect x="36" y="136" width="215" height="8" rx="4" fill="#2E7D52" stroke="#2E7D52"/><text x="36" y="130" font-size="9" font-weight="700" fill="#1A5C38" text-anchor="start">5 de 7 hábitos completados hoy</text><rect x="24" y="162" width="22" height="22" rx="6" fill="#1A5C38" stroke="#1A5C38"/><text x="35" y="177" font-size="10" font-weight="700" fill="#FFFFFF" text-anchor="middle">✓</text><text x="54" y="176" font-size="11" font-weight="600" fill="#111827" text-anchor="start">📖 Leer 30 min</text><text x="54" y="188" font-size="9" font-weight="400" fill="#6B7280" text-anchor="start">Diario</text><line x1="24" y1="198" x2="351" y2="198" stroke="#F9FAFB"/><rect x="54" y="188" width="297" height="4" rx="4" fill="#E5E7EB" stroke="#E5E7EB"/><rect x="54" y="188" width="297" height="4" rx="4" fill="#2E7D52" stroke="#2E7D52"/><rect x="24" y="206" width="22" height="22" rx="6" fill="#1A5C38" stroke="#1A5C38"/><text x="35" y="221" font-size="10" font-weight="700" fill="#FFFFFF" text-anchor="middle">✓</text><text x="54" y="220" font-size="11" font-weight="600" fill="#111827" text-anchor="start">🏃 Ejercicio matutino</text><text x="54" y="232" font-size="9" font-weight="400" fill="#6B7280" text-anchor="start">Diario</text><line x1="24" y1="242" x2="351" y2="242" stroke="#F9FAFB"/><rect x="54" y="232" width="297" height="4" rx="4" fill="#E5E7EB" stroke="#E5E7EB"/><rect x="54" y="232" width="297" height="4" rx="4" fill="#2E7D52" stroke="#2E7D52"/><rect x="24" y="250" width="22" height="22" rx="6" fill="#FFFFFF" stroke="#E5E7EB"/><text x="35" y="265" font-size="10" font-weight="700" fill="#FFFFFF" text-anchor="middle"></text><text x="54" y="264" font-size="11" font-weight="600" fill="#111827" text-anchor="start">📝 Avanzar tesis</text><text x="54" y="276" font-size="9" font-weight="400" fill="#6B7280" text-anchor="start">Diario</text><text x="351" y="264" font-size="9" font-weight="600" fill="#6B7280" text-anchor="end">⚠ 3 días sin completar</text><line x1="24" y1="286" x2="351" y2="286" stroke="#F9FAFB"/><rect x="54" y="276" width="297" height="4" rx="4" fill="#E5E7EB" stroke="#E5E7EB"/><rect x="54" y="276" width="89" height="4" rx="4" fill="#D35400" stroke="#D35400"/><rect x="24" y="294" width="22" height="22" rx="6" fill="#FFFFFF" stroke="#E5E7EB"/><text x="35" y="309" font-size="10" font-weight="700" fill="#FFFFFF" text-anchor="middle"></text><text x="54" y="308" font-size="11" font-weight="600" fill="#111827" text-anchor="start">💧 Tomar agua 2L</text><text x="54" y="320" font-size="9" font-weight="400" fill="#6B7280" text-anchor="start">Diario</text><line x1="24" y1="330" x2="351" y2="330" stroke="#F9FAFB"/><rect x="54" y="320" width="297" height="4" rx="4" fill="#E5E7EB" stroke="#E5E7EB"/><rect x="54" y="320" width="178" height="4" rx="4" fill="#2E7D52" stroke="#2E7D52"/><rect x="24" y="338" width="22" height="22" rx="6" fill="#FFFFFF" stroke="#E5E7EB"/><text x="35" y="353" font-size="10" font-weight="700" fill="#FFFFFF" text-anchor="middle"></text><text x="54" y="352" font-size="11" font-weight="600" fill="#111827" text-anchor="start">🧘 Meditación 10 min</text><text x="54" y="364" font-size="9" font-weight="400" fill="#6B7280" text-anchor="start">Lun/Mié/Vie</text><line x1="24" y1="374" x2="351" y2="374" stroke="#F9FAFB"/><rect x="54" y="364" width="297" height="4" rx="4" fill="#E5E7EB" stroke="#E5E7EB"/><rect x="54" y="364" width="0" height="4" rx="4" fill="#2E7D52" stroke="#2E7D52"/><rect x="24" y="390" width="327" height="36" rx="10" fill="#FFFFFF" stroke="#FFFFFF"/><text x="187" y="412" font-size="11" font-weight="700" fill="#1A5C38" text-anchor="middle">+ Agregar nuevo hábito</text><rect x="24" y="390" width="327" height="36" rx="8" fill="#FFFFFF" stroke="#1A5C38"/><text x="187" y="412" font-size="11" font-weight="700" fill="#1A5C38" text-anchor="middle">+ Agregar nuevo hábito</text><rect x="8" y="760" width="359" height="44" fill="#FFFFFF"/><line x1="8" y1="760" x2="367" y2="760" stroke="#E5E7EB"/><text x="52" y="776" font-size="14" text-anchor="middle" fill="#6B7280">🌿</text><text x="52" y="789" font-size="8" font-weight="600" text-anchor="middle" fill="#6B7280">Bioma</text><text x="141" y="776" font-size="14" text-anchor="middle" fill="#1A5C38">✅</text><text x="141" y="789" font-size="8" font-weight="600" text-anchor="middle" fill="#1A5C38">Hábitos</text><text x="230" y="776" font-size="14" text-anchor="middle" fill="#6B7280">💬</text><text x="230" y="789" font-size="8" font-weight="600" text-anchor="middle" fill="#6B7280">Coach</text><text x="319" y="776" font-size="14" text-anchor="middle" fill="#6B7280">📊</text><text x="319" y="789" font-size="8" font-weight="600" text-anchor="middle" fill="#6B7280">Stats</text>
  </g>
</svg>