<svg xmlns="http://www.w3.org/2000/svg" width="375" height="812" viewBox="0 0 375 812">
  <defs>
    <clipPath id="clip"><rect x="8" y="8" width="359" height="796" rx="32"/></clipPath>
    <style>text{font-family:-apple-system,BlinkMacSystemFont,'Segoe UI',sans-serif}</style>
  </defs>
  <rect width="375" height="812" rx="40" fill="#1C1C1E"/>
  <rect x="138" y="14" width="99" height="10" rx="5" fill="#2a2a2a"/>
  <g clip-path="url(#clip)">
    <rect x="8" y="8" width="359" height="796" rx="32" fill="#FFFFFF"/>
    <rect x="8" y="8" width="359" height="28" fill="transparent"/>
<text x="24" y="26" font-size="10" font-weight="700" fill="#6B7280">9:41</text>
<text x="345" y="26" font-size="10" fill="#6B7280" text-anchor="end">●●● 🔋</text><rect x="8" y="36" width="359" height="40" fill="#FFFFFF"/>
<line x1="8" y1="76" x2="367" y2="76" stroke="#E5E7EB"/>
<text x="24" y="61" font-size="13" font-weight="700" fill="#111827">⚙️  Perfil y Configuración</text><text x="351" y="60" font-size="15" fill="#111827" text-anchor="end">✏️</text><rect x="155" y="90" width="64" height="64" rx="32" fill="#D8F3DC" stroke="#1A5C38"/><text x="187" y="130" font-size="28" font-weight="400" fill="#111827" text-anchor="middle">🧑‍💻</text><text x="187" y="168" font-size="13" font-weight="700" fill="#111827" text-anchor="middle">María Gracia R.</text><text x="187" y="183" font-size="9" font-weight="400" fill="#6B7280" text-anchor="middle">Estudiante · Bosque · 12🔥 racha</text><line x1="24" y1="200" x2="351" y2="200" stroke="#E5E7EB"/><text x="24" y="226" font-size="16" font-weight="400" fill="#111827" text-anchor="start">🌿</text><text x="56" y="222" font-size="11" font-weight="600" fill="#111827" text-anchor="start">Tipo de bioma</text><text x="56" y="235" font-size="9" font-weight="400" fill="#6B7280" text-anchor="start">Bosque (automático IA)</text><text x="351" y="226" font-size="14" font-weight="400" fill="#6B7280" text-anchor="end">›</text><line x1="24" y1="246" x2="351" y2="246" stroke="#F9FAFB"/><text x="24" y="266" font-size="16" font-weight="400" fill="#111827" text-anchor="start">♿</text><text x="56" y="262" font-size="11" font-weight="600" fill="#111827" text-anchor="start">Accesibilidad</text><text x="56" y="275" font-size="9" font-weight="400" fill="#6B7280" text-anchor="start">WCAG AA · TTS · Haptic ON</text><text x="351" y="266" font-size="14" font-weight="400" fill="#6B7280" text-anchor="end">›</text><line x1="24" y1="286" x2="351" y2="286" stroke="#F9FAFB"/><text x="24" y="306" font-size="16" font-weight="400" fill="#111827" text-anchor="start">🔔</text><text x="56" y="302" font-size="11" font-weight="600" fill="#111827" text-anchor="start">Notificaciones</text><text x="56" y="315" font-size="9" font-weight="400" fill="#6B7280" text-anchor="start">7:00 AM · Vibración activada</text><text x="351" y="306" font-size="14" font-weight="400" fill="#6B7280" text-anchor="end">›</text><line x1="24" y1="326" x2="351" y2="326" stroke="#F9FAFB"/><text x="24" y="346" font-size="16" font-weight="400" fill="#111827" text-anchor="start">🎨</text><text x="56" y="342" font-size="11" font-weight="600" fill="#111827" text-anchor="start">Tema visual</text><text x="56" y="355" font-size="9" font-weight="400" fill="#6B7280" text-anchor="start">Claro / Verde</text><text x="351" y="346" font-size="14" font-weight="400" fill="#6B7280" text-anchor="end">›</text><line x1="24" y1="366" x2="351" y2="366" stroke="#F9FAFB"/><text x="24" y="386" font-size="16" font-weight="400" fill="#111827" text-anchor="start">🔒</text><text x="56" y="382" font-size="11" font-weight="600" fill="#111827" text-anchor="start">Privacidad de datos</text><text x="56" y="395" font-size="9" font-weight="400" fill="#6B7280" text-anchor="start">Ver política</text><text x="351" y="386" font-size="14" font-weight="400" fill="#6B7280" text-anchor="end">›</text><line x1="24" y1="406" x2="351" y2="406" stroke="#F9FAFB"/><text x="24" y="426" font-size="16" font-weight="400" fill="#111827" text-anchor="start">📤</text><text x="56" y="422" font-size="11" font-weight="600" fill="#111827" text-anchor="start">Exportar mis datos</text><text x="56" y="435" font-size="9" font-weight="400" fill="#6B7280" text-anchor="start">CSV / JSON</text><text x="351" y="426" font-size="14" font-weight="400" fill="#6B7280" text-anchor="end">›</text><line x1="24" y1="446" x2="351" y2="446" stroke="#F9FAFB"/><rect x="24" y="456" width="327" height="34" rx="8" fill="#F9FAFB" stroke="#E5E7EB"/><text x="187" y="477" font-size="11" font-weight="400" fill="#6B7280" text-anchor="middle">Cerrar sesión</text><rect x="8" y="760" width="359" height="44" fill="#FFFFFF"/><line x1="8" y1="760" x2="367" y2="760" stroke="#E5E7EB"/><text x="52" y="776" font-size="14" text-anchor="middle" fill="#6B7280">🌿</text><text x="52" y="789" font-size="8" font-weight="600" text-anchor="middle" fill="#6B7280">Bioma</text><text x="141" y="776" font-size="14" text-anchor="middle" fill="#6B7280">✅</text><text x="141" y="789" font-size="8" font-weight="600" text-anchor="middle" fill="#6B7280">Hábitos</text><text x="230" y="776" font-size="14" text-anchor="middle" fill="#6B7280">💬</text><text x="230" y="789" font-size="8" font-weight="600" text-anchor="middle" fill="#6B7280">Coach</text><text x="319" y="776" font-size="14" text-anchor="middle" fill="#1A5C38">📊</text><text x="319" y="789" font-size="8" font-weight="600" text-anchor="middle" fill="#1A5C38">Stats</text>
  </g>
</svg>