<svg xmlns="http://www.w3.org/2000/svg" width="375" height="812" viewBox="0 0 375 812">
  <defs>
    <clipPath id="clip"><rect x="8" y="8" width="359" height="796" rx="32"/></clipPath>
    <style>text{font-family:-apple-system,BlinkMacSystemFont,'Segoe UI',sans-serif}</style>
  </defs>
  <rect width="375" height="812" rx="40" fill="#1C1C1E"/>
  <rect x="138" y="14" width="99" height="10" rx="5" fill="#2a2a2a"/>
  <g clip-path="url(#clip)">
    <rect x="8" y="8" width="359" height="796" rx="32" fill="#EDE9FE"/>
    <rect x="8" y="8" width="359" height="796" rx="32" fill="#EDE9FE" stroke="#EDE9FE"/><rect x="8" y="8" width="359" height="28" fill="#EDE9FE"/>
<text x="24" y="26" font-size="10" font-weight="700" fill="#5B21B6">9:41</text>
<text x="345" y="26" font-size="10" fill="#5B21B6" text-anchor="end">●●● 🔋</text><rect x="8" y="36" width="359" height="40" fill="#5B21B6"/>
<line x1="8" y1="76" x2="367" y2="76" stroke="#E5E7EB"/>
<text x="24" y="61" font-size="13" font-weight="700" fill="#FFFFFF">🧘  Momento de calma</text><text x="351" y="60" font-size="15" fill="#FFFFFF" text-anchor="end">✕</text><rect x="24" y="92" width="327" height="40" rx="10" fill="#FFFFFF" stroke="#5B21B6"/><text x="36" y="108" font-size="8" font-weight="700" fill="#5B21B6" text-anchor="start">🤖  El Terapeuta detectó señales de agotamiento</text><text x="36" y="122" font-size="8" font-weight="400" fill="#374151" text-anchor="start">Llevas 7 días con baja completitud</text><text x="187" y="150" font-size="12" font-weight="700" fill="#111827" text-anchor="middle">Técnica de Respiración 4-7-8</text><text x="187" y="166" font-size="9" font-weight="400" fill="#6B7280" text-anchor="middle">Sigue el ritmo del círculo</text><rect x="135" y="180" width="104" height="104" rx="52" fill="#D8F3DC" stroke="#52B788"/><rect x="149" y="194" width="76" height="76" rx="38" fill="#1A5C38" stroke="#1A5C38"/><text x="187" y="237" font-size="10" font-weight="700" fill="#FFFFFF" text-anchor="middle">Inhala</text><text x="187" y="252" font-size="14" font-weight="700" fill="#FFFFFF" text-anchor="middle">4 seg</text><rect x="24" y="298" width="327" height="28" rx="8" fill="#EDE9FE" stroke="#5B21B6"/><text x="187" y="316" font-size="9" font-weight="600" fill="#5B21B6" text-anchor="middle">📳  Guía háptica activada · Ciclo 1 de 3</text><rect x="58" y="336" width="40" height="40" rx="8" fill="#EDE9FE" stroke="#5B21B6"/><text x="78" y="352" font-size="11" font-weight="700" fill="#5B21B6" text-anchor="middle">4s</text><text x="78" y="368" font-size="8" font-weight="400" fill="#6B7280" text-anchor="middle">Inhalar</text><rect x="167" y="336" width="40" height="40" rx="8" fill="#FFFFFF" stroke="#E5E7EB"/><text x="187" y="352" font-size="11" font-weight="700" fill="#E5E7EB" text-anchor="middle">7s</text><text x="187" y="368" font-size="8" font-weight="400" fill="#6B7280" text-anchor="middle">Retener</text><rect x="276" y="336" width="40" height="40" rx="8" fill="#FFFFFF" stroke="#1A5C38"/><text x="296" y="352" font-size="11" font-weight="700" fill="#1A5C38" text-anchor="middle">8s</text><text x="296" y="368" font-size="8" font-weight="400" fill="#6B7280" text-anchor="middle">Exhalar</text><rect x="24" y="392" width="327" height="8" rx="4" fill="#E5E7EB" stroke="#E5E7EB"/><rect x="24" y="392" width="107" height="8" rx="4" fill="#5B21B6" stroke="#5B21B6"/><text x="24" y="408" font-size="8" font-weight="400" fill="#6B7280" text-anchor="start">Progreso del ciclo</text><text x="351" y="408" font-size="8" font-weight="400" fill="#5B21B6" text-anchor="end">1 / 3 ciclos</text><rect x="24" y="424" width="327" height="36" rx="10" fill="#5B21B6" stroke="#5B21B6"/><text x="187" y="446" font-size="11" font-weight="700" fill="#FFFFFF" text-anchor="middle">Pausar ejercicio</text><rect x="24" y="468" width="327" height="28" rx="8" fill="#FFFFFF" stroke="#5B21B6"/><text x="187" y="486" font-size="10" font-weight="400" fill="#5B21B6" text-anchor="middle">Saltar</text><text x="187" y="522" font-size="7" font-weight="400" fill="#6B7280" text-anchor="middle">Este ejercicio fue sugerido por el Terapeuta · UC-04</text><text x="187" y="534" font-size="7" font-weight="400" fill="#6B7280" text-anchor="middle">Las respuestas generadas siguen pautas clínicas · RNF-09</text>
  </g>
</svg>